<svg version="1.1" id="Layer_1" xmlns="http://www.w3.org/2000/svg" xmlns:xlink="http://www.w3.org/1999/xlink" x="0px" y="0px"
	 width="100%" viewBox="0 0 640 640" enable-background="new 0 0 640 640" xml:space="preserve">
<path fill="#000000" opacity="1.000000" stroke="none" 
	d="
M593.347900,329.938904 
	C592.397888,359.894531 586.896240,388.460876 576.680725,416.141144 
	C562.252380,455.236664 539.998901,489.288025 510.149963,518.223694 
	C484.649872,542.943542 455.260132,561.939697 422.200714,575.114685 
	C398.121796,584.710693 373.250854,590.990112 347.394562,593.417908 
	C294.205078,598.412109 243.556091,589.413208 196.002243,565.075684 
	C134.449646,533.573792 91.067719,485.174164 65.508537,421.023834 
	C55.063190,394.807312 49.283543,367.507263 47.421616,339.166290 
	C43.990688,286.942963 54.561756,237.810837 79.203873,192.008469 
	C110.680603,133.502594 157.715179,91.796127 219.534454,67.133934 
	C242.939926,57.796555 267.171661,51.720699 292.386902,49.505333 
	C302.496063,48.617157 312.554443,47.494095 322.715149,47.734909 
	C368.536133,48.820896 411.842438,59.600334 452.029724,81.863029 
	C509.104095,113.480705 549.672607,159.833344 574.178467,220.213867 
	C582.967957,241.870590 588.619812,264.380646 591.445496,287.631134 
	C593.136780,301.547272 593.473633,315.476196 593.347900,329.938904 
M325.472321,69.347832 
	C317.661072,69.586426 309.862885,69.504349 302.032379,70.020676 
	C280.297760,71.453812 259.231201,75.748878 238.757782,83.032585 
	C174.407333,105.926132 126.485260,147.823654 95.569473,208.616974 
	C75.281944,248.510696 66.342911,291.040405 69.237534,335.944061 
	C70.116127,349.573486 71.654129,363.087219 74.728561,376.338776 
	C86.534889,427.227051 111.381889,470.722626 149.791550,506.234711 
	C194.538055,547.605530 247.733353,569.562805 308.295166,573.507019 
	C331.777802,575.036255 355.139526,572.482910 378.060577,566.944153 
	C441.510498,551.611694 491.749847,516.812988 529.037598,463.421021 
	C552.638977,429.626465 566.476501,391.873199 571.454834,351.069611 
	C574.056458,329.745789 573.648376,308.280243 570.731079,286.890259 
	C566.170898,253.454025 555.367920,222.164368 538.106018,193.275620 
	C511.403748,148.588089 474.471283,114.911324 427.237244,92.783836 
	C395.326141,77.834595 361.746063,69.878174 325.472321,69.347832 
z"/>
<path fill="#000000" opacity="1.000000" stroke="none" 
	d="
M404.660461,334.036255 
	C403.349121,313.956909 404.170776,294.297150 404.115753,274.649963 
	C404.078033,261.170288 403.316528,247.663879 404.642242,234.202911 
	C406.400482,216.349854 421.379395,202.717010 439.349823,202.668564 
	C462.339417,202.606598 485.329315,202.643860 508.319061,202.663574 
	C528.114380,202.680542 544.109985,218.174789 544.232422,237.952469 
	C544.423218,268.770844 544.385254,299.591827 544.238464,330.410706 
	C544.147400,349.539703 530.200500,364.352570 510.966278,365.331299 
	C485.188019,366.643036 459.372833,366.550537 433.595917,365.211426 
	C419.553833,364.481964 406.773651,350.482819 404.660461,334.036255 
M508.380493,291.302246 
	C508.265503,286.308441 507.905701,281.304688 508.108765,276.323853 
	C508.288666,271.911255 507.026611,269.882904 502.205200,270.235168 
	C496.900299,270.622742 491.545471,270.326355 486.212372,270.328522 
	C471.457458,270.334534 471.603729,270.334991 471.636688,255.365082 
	C471.646423,250.948578 473.172607,249.575180 477.473877,249.646088 
	C489.636414,249.846558 501.806091,249.585419 513.970032,249.738800 
	C518.185120,249.791962 519.194092,248.219543 518.314941,244.288712 
	C517.192993,239.272385 516.391968,234.175949 515.655029,229.084747 
	C515.157104,225.644348 513.460510,224.324982 509.962433,224.341949 
	C488.630585,224.445328 467.297668,224.460510 445.965942,224.347931 
	C441.729767,224.325577 440.191803,225.709381 440.253326,230.152878 
	C440.491028,247.315475 440.347687,264.483368 440.346832,281.649261 
	C440.345886,301.148407 440.360077,320.647552 440.329376,340.146637 
	C440.324646,343.153168 440.238708,345.853882 444.537292,345.837891 
	C467.535828,345.752350 490.534760,345.783447 513.533569,345.769379 
	C515.444824,345.768219 517.385193,345.550659 517.966492,343.350922 
	C519.855835,336.201935 522.013611,329.100464 522.914795,321.933655 
	C521.056335,320.742065 519.519409,321.078888 518.050964,321.077026 
	C504.551605,321.060028 491.051361,320.990845 477.553345,321.127655 
	C473.289490,321.170837 471.475677,319.568665 471.684082,315.221771 
	C471.915222,310.399841 471.926514,305.548004 471.672455,300.728210 
	C471.464447,296.782440 472.979156,295.449402 476.871887,295.542175 
	C485.533234,295.748535 494.203186,295.568298 502.869019,295.628937 
	C505.554596,295.647736 507.983063,295.533569 508.380493,291.302246 
z"/>
<path fill="#000000" opacity="1.000000" stroke="none" 
	d="
M257.702942,351.170624 
	C252.311478,343.818695 251.002762,335.644409 250.976959,327.222351 
	C250.890274,298.899017 250.964310,270.575226 250.935760,242.251678 
	C250.919128,225.761581 256.626862,212.679306 272.491180,205.530273 
	C276.638672,203.661255 280.976685,202.657364 285.527191,202.655930 
	C309.019104,202.648529 332.511139,202.615524 356.002930,202.668579 
	C375.698517,202.713058 390.679993,219.957031 390.458588,236.932724 
	C390.041504,268.916260 390.370605,300.909180 390.323608,332.898071 
	C390.299530,349.288940 376.049072,364.532135 359.626251,365.324066 
	C333.340332,366.591614 307.028351,366.522430 280.750854,365.207245 
	C271.018402,364.720123 263.800018,358.924103 257.702942,351.170624 
M365.719635,345.625305 
	C367.055054,346.702698 368.390472,347.780060 370.624847,349.582672 
	C370.624847,344.502380 370.625946,340.528778 370.624664,336.555176 
	C370.613464,301.726624 370.607086,266.898041 370.571991,232.069504 
	C370.570526,230.586502 370.427277,229.077194 370.121704,227.628296 
	C369.812256,226.161041 368.722473,225.198364 367.198517,225.541412 
	C359.654053,227.239792 351.895996,225.526505 344.318634,227.117920 
	C341.511322,227.707504 340.170776,228.717468 340.307312,231.628723 
	C340.852325,243.247375 341.427155,254.865875 341.809631,266.490387 
	C342.013184,272.677307 341.845734,278.876465 341.845734,286.744934 
	C318.570679,265.482758 296.471802,245.295044 274.374939,225.109207 
	C272.691650,226.709747 272.647614,227.822296 272.654755,229.023773 
	C272.764008,247.351181 272.882599,265.678680 272.921967,284.006348 
	C272.963806,303.503418 272.974274,323.000916 272.876373,342.497620 
	C272.857788,346.198883 273.827240,348.103058 277.995087,347.724365 
	C284.775513,347.108398 291.591888,346.899628 298.385864,346.417328 
	C301.700684,346.182037 302.981750,344.220703 302.617584,340.963684 
	C302.285126,337.990051 302.007568,335.003052 301.883270,332.014587 
	C301.392456,320.210724 302.325165,308.369629 300.816956,296.582825 
	C300.475555,293.914520 300.229431,291.055969 301.332825,288.312683 
	C302.206177,288.511261 302.809692,288.465179 303.117676,288.744690 
	C323.828918,307.541870 344.516357,326.365234 365.719635,345.625305 
z"/>
<path fill="#000000" opacity="1.000000" stroke="none" 
	d="
M97.718307,326.933441 
	C97.721115,297.128143 97.714752,267.812836 97.731522,238.497559 
	C97.743088,218.272873 113.253471,202.679550 133.396561,202.658798 
	C155.716141,202.635803 178.035736,202.649567 200.355331,202.659302 
	C219.275482,202.667542 232.302124,212.817017 236.771149,231.101898 
	C237.198593,232.850723 237.316559,234.712555 237.319000,236.522293 
	C237.361374,267.836243 237.413849,299.150330 237.354858,330.464203 
	C237.318848,349.578644 223.839203,364.345306 204.821320,365.314911 
	C179.047638,366.628876 153.237534,366.534363 127.455635,365.266937 
	C115.995041,364.703522 103.791916,354.227356 99.851814,342.133362 
	C98.297401,337.362091 97.330353,332.486023 97.718307,326.933441 
M134.641846,331.850159 
	C155.732422,351.453064 180.274292,354.617798 207.084946,347.107910 
	C211.044785,345.998688 213.025253,343.991577 213.307999,339.443848 
	C213.802841,331.485321 213.400513,323.494476 214.513733,315.539703 
	C215.041000,311.772125 215.304642,307.699799 213.991806,303.879669 
	C211.561737,303.913971 209.954224,305.214630 208.168274,306.027435 
	C197.610687,310.832306 186.874023,313.653931 175.402985,309.251190 
	C162.182175,304.176819 155.914291,290.534607 159.927490,275.484070 
	C163.085907,263.639130 176.403488,256.142334 189.489136,258.158905 
	C198.104507,259.486572 205.984131,262.603790 214.063660,266.708069 
	C214.283966,264.629181 214.737778,263.128571 214.546127,261.715515 
	C213.015976,250.433487 213.734009,239.096619 213.778946,227.791122 
	C213.796524,223.368958 211.834442,221.468979 208.034531,220.421402 
	C201.282776,218.560043 194.434250,217.320923 187.432663,217.045929 
	C168.606018,216.306473 151.222961,220.662582 137.167770,233.660324 
	C109.948830,258.831390 108.770119,303.806488 134.641846,331.850159 
z"/>
<path fill="#000000" opacity="1.000000" stroke="none" 
	d="
M310.126038,529.123657 
	C304.615967,534.711731 299.431732,540.119202 294.134064,545.413269 
	C289.476044,550.068176 287.479279,550.044250 282.880707,545.585632 
	C281.566559,544.311584 280.207245,543.071228 279.010498,541.692261 
	C277.400208,539.836792 275.844421,539.045593 273.433838,540.559631 
	C271.539856,541.749146 269.198395,542.072449 267.441528,540.255005 
	C265.684692,538.437683 265.993011,536.222229 267.410553,534.313232 
	C269.020203,532.145569 268.011536,530.743713 266.450348,529.173218 
	C257.525177,520.194885 254.902130,521.046204 266.855591,509.573639 
	C274.304718,502.424133 281.557465,495.070038 288.901428,487.810883 
	C290.695099,486.037872 292.958801,484.313507 290.379272,481.590271 
	C287.699066,478.760773 286.270569,481.686646 284.743683,483.107422 
	C278.962433,488.487030 277.757782,488.509308 272.139923,482.831726 
	C268.509338,479.162598 264.942413,475.429230 261.261993,471.811066 
	C258.489594,469.085632 258.245148,466.377777 261.030212,463.598907 
	C266.569366,458.072174 272.146759,452.583740 277.719086,447.090332 
	C280.887543,443.966644 283.938904,443.757782 287.165802,447.180725 
	C290.934814,451.178558 294.971558,454.923004 298.773651,458.890961 
	C302.525970,462.806915 302.425903,465.048523 298.619720,469.127991 
	C297.938049,469.858612 297.261383,470.595734 296.547424,471.294128 
	C294.529663,473.267853 295.567993,474.813782 297.174347,476.354553 
	C298.935699,478.043976 300.031860,476.902496 301.313202,475.618774 
	C306.755249,470.166565 308.105408,470.159393 313.466370,475.529144 
	C315.338135,477.404053 317.071167,479.417419 318.868408,481.368500 
	C323.110931,479.482208 324.102600,477.460480 322.092285,473.433075 
	C317.381165,463.995056 317.856354,454.478790 323.181213,445.317078 
	C325.728210,440.934784 328.351715,440.409027 331.932495,443.929810 
	C342.620605,454.438965 353.221985,465.038666 363.717926,475.739624 
	C367.517609,479.613495 367.140106,482.111420 362.422058,484.815430 
	C353.087738,490.165131 343.415680,490.353821 333.829559,485.588135 
	C330.611938,483.988495 328.538422,484.258057 326.823456,487.668762 
	C328.412415,490.579010 331.220245,492.483643 333.447968,494.890808 
	C337.404785,499.166443 337.402405,501.400604 333.429779,505.474243 
	C331.907959,507.034760 329.336945,508.290497 332.059265,511.086212 
	C334.547394,513.641541 336.067902,511.917358 337.857605,510.273895 
	C344.203644,504.446442 344.741852,504.463776 350.749115,510.427277 
	C354.292725,513.945007 357.826843,517.472778 361.327057,521.033569 
	C364.201904,523.958252 364.019287,526.876953 361.201721,529.763000 
	C355.850891,535.243835 350.594330,540.819153 345.154968,546.210327 
	C341.362213,549.969421 339.264862,549.874939 335.451721,546.103943 
	C331.665283,542.359436 327.911041,538.579285 324.239807,534.722229 
	C319.712128,529.965393 319.750641,528.526001 324.199219,523.951477 
	C324.547211,523.593567 324.933380,523.273071 325.286713,522.920166 
	C326.859283,521.349121 328.627136,519.812256 326.177979,517.563171 
	C324.104034,515.658630 322.652985,516.880310 321.110504,518.426392 
	C317.585358,521.959595 313.977081,525.409912 310.126038,529.123657 
z"/>
<path fill="#000000" opacity="1.000000" stroke="none" 
	d="
M382.314636,453.070557 
	C382.408508,454.650604 382.352753,455.838654 382.589600,456.965210 
	C383.226166,459.993164 383.342285,462.984131 379.493347,463.530090 
	C375.715088,464.065979 374.775085,461.324890 374.647644,458.140167 
	C374.601654,456.990509 374.421600,455.829742 374.158905,454.707733 
	C371.246429,442.268158 362.777069,434.845245 349.809479,433.301544 
	C346.893158,432.954376 343.596924,432.371429 344.013519,428.629730 
	C344.439758,424.801025 347.779999,424.490601 350.974243,424.831543 
	C366.809296,426.521698 378.074524,436.536926 382.314636,453.070557 
z"/>
<path fill="#000000" opacity="1.000000" stroke="none" 
	d="
M350.642395,392.572327 
	C349.637115,391.285278 348.919586,390.199371 348.216461,389.135223 
	C345.997131,389.646942 346.578186,392.608002 344.057526,392.955780 
	C341.756287,391.609314 341.633820,388.722412 340.509827,386.443207 
	C339.980072,385.368988 339.388245,384.145538 337.968231,384.616028 
	C336.426117,385.126953 336.262207,386.528870 336.648438,387.933868 
	C337.135437,389.705353 340.242279,392.108765 336.773346,393.051849 
	C333.352203,393.981934 332.550446,390.809631 332.601776,387.847015 
	C332.616180,387.015167 332.526855,386.167450 331.418335,385.532959 
	C329.114502,384.993500 327.811401,386.971405 325.956818,388.406891 
	C326.945892,389.794922 330.297211,388.074524 329.754669,390.924774 
	C329.335052,393.129089 327.211517,393.295959 325.359344,393.394806 
	C321.626038,393.594055 318.428467,390.280457 318.536377,386.395935 
	C318.634888,382.847382 322.847900,378.534088 325.810455,379.852234 
	C330.401093,381.894745 332.407043,380.453918 333.735840,376.278259 
	C333.825439,375.996735 334.574402,375.925079 335.595459,375.534393 
	C334.616211,382.876129 343.245148,378.713196 344.383301,383.639465 
	C346.070618,383.145203 345.975372,380.847229 347.799744,380.770996 
	C349.636871,380.861328 349.630920,382.992371 351.072235,383.710266 
	C352.558685,382.720306 352.861206,379.274811 356.460571,381.510712 
	C355.052856,385.368134 355.647858,390.198853 350.642395,392.572327 
z"/>
<path fill="#000000" opacity="1.000000" stroke="none" 
	d="
M212.934769,389.115845 
	C215.274597,389.233551 216.508011,388.075714 216.839462,386.327393 
	C218.045822,379.964050 221.586105,378.525055 226.745193,381.394684 
	C229.451599,379.922821 228.201401,375.394409 232.575729,375.947235 
	C232.892166,379.267242 236.670441,382.142670 233.540207,386.100494 
	C232.895676,386.915436 233.396225,388.370911 234.156219,389.364563 
	C235.141418,390.652679 235.959900,392.107239 233.929977,392.989960 
	C232.169830,393.755402 230.836868,392.719849 229.716278,391.249481 
	C228.201477,389.261780 229.683105,386.277222 227.545532,384.415497 
	C225.913498,385.707306 226.473221,387.324707 226.366837,388.733978 
	C226.050629,392.921936 223.473679,394.977325 219.487106,393.387054 
	C217.145248,392.452881 215.367447,392.478821 213.017532,393.128662 
	C208.879288,394.273071 205.373062,391.914185 204.720505,388.170349 
	C204.005875,384.070312 206.187042,380.716736 210.081329,379.928375 
	C212.050629,379.529724 214.143661,379.889709 214.775940,381.745605 
	C215.631287,384.256134 213.290359,384.118988 211.695435,384.295868 
	C210.160187,384.466095 209.123352,385.174866 209.212921,386.802338 
	C209.330154,388.932495 210.575836,389.691498 212.934769,389.115845 
z"/>
<path fill="#000000" opacity="1.000000" stroke="none" 
	d="
M316.981201,386.829590 
	C316.686890,389.124237 317.131256,391.203827 315.444611,393.135010 
	C310.362732,390.178528 307.918671,384.415161 302.090729,380.589172 
	C302.090729,384.303101 302.148621,387.201294 302.067444,390.095612 
	C302.023895,391.648163 301.674164,393.201294 299.610443,393.140717 
	C297.419617,393.076447 297.542877,391.404724 297.541138,389.892578 
	C297.533813,383.503845 297.538025,377.115143 297.538025,370.726410 
	C298.025574,370.549042 298.513153,370.371674 299.000702,370.194336 
	C302.506378,374.474518 306.012054,378.754700 309.517731,383.034912 
	C310.127380,382.579834 310.737061,382.124786 311.346710,381.669739 
	C312.280884,379.221832 311.657196,376.582794 311.856537,374.044708 
	C311.998840,372.232788 311.839172,369.984192 314.399384,369.976776 
	C317.166718,369.968781 316.640991,372.206055 316.596313,374.029999 
	C316.494965,378.171539 316.117188,382.325836 316.981201,386.829590 
z"/>
<path fill="#000000" opacity="1.000000" stroke="none" 
	d="
M367.303650,458.908630 
	C367.186951,462.030640 365.850952,463.873047 363.125702,463.941925 
	C360.483429,464.008698 359.318268,461.779785 359.068054,459.639069 
	C358.288116,452.966431 354.122955,449.838074 348.088226,448.572968 
	C345.487518,448.027740 343.584564,446.891235 343.969421,444.029663 
	C344.360138,441.124634 346.691498,440.694153 349.214020,440.671265 
	C358.250366,440.589203 365.661591,447.852081 367.303650,458.908630 
z"/>
<path fill="#000000" opacity="1.000000" stroke="none" 
	d="
M291.362427,382.856232 
	C293.989014,382.337341 295.638336,382.594727 294.961700,385.754974 
	C294.648376,387.218292 290.718384,391.699158 289.293091,392.371521 
	C287.352112,393.287201 285.545776,394.857422 283.262573,393.664459 
	C280.046783,391.984222 278.523682,389.613953 280.437927,385.929474 
	C281.397003,384.083496 283.131287,382.509705 282.449829,380.002533 
	C281.769867,377.500763 282.539703,375.250366 284.876770,374.064117 
	C286.702118,373.137604 288.890900,373.087616 290.496399,374.626038 
	C292.519043,376.564087 292.774689,378.943451 291.420044,381.462189 
	C291.210907,381.851074 291.227081,382.361115 291.362427,382.856232 
z"/>
<path fill="#000000" opacity="1.000000" stroke="none" 
	d="
M480.669617,389.081543 
	C480.518524,393.252899 477.578918,394.707397 473.746033,392.611603 
	C472.183685,391.757385 470.904144,390.385925 469.499176,389.252380 
	C467.578308,389.822235 468.931213,393.494720 466.259888,392.907837 
	C463.732697,392.352631 464.946381,389.902985 464.661163,388.258392 
	C464.439545,386.980652 464.734009,385.502686 462.851349,385.018982 
	C460.379639,386.169006 461.831848,388.485107 461.442596,390.235962 
	C461.157288,391.519379 461.320923,393.110016 459.358643,392.976135 
	C457.765503,392.867462 457.717133,391.492249 457.690918,390.354736 
	C457.622559,387.387482 457.667938,384.417603 457.667938,381.248138 
	C462.188019,380.378510 466.710052,377.554718 469.105804,384.013794 
	C474.748291,379.209106 478.555420,378.529510 481.038055,381.899689 
	C484.068329,386.013245 478.215088,385.793823 477.770172,388.346100 
	C478.422119,389.304657 479.577423,388.417999 480.669617,389.081543 
z"/>
<path fill="#000000" opacity="1.000000" stroke="none" 
	d="
M379.604279,382.273254 
	C379.643951,378.849243 379.640625,375.859985 379.725433,372.873260 
	C379.757538,371.742523 379.734833,370.328552 381.321594,370.240662 
	C383.255737,370.133545 383.262512,371.721619 383.284546,373.029236 
	C383.342590,376.479279 383.304169,379.930939 383.759521,383.909943 
	C386.836273,379.075134 391.849487,381.748322 395.684937,380.050476 
	C397.392517,379.294617 399.873535,380.643921 399.748230,382.565613 
	C399.604004,384.777710 400.240143,386.799225 400.214294,388.912231 
	C400.189148,390.967712 398.888000,393.092255 397.206024,392.917786 
	C392.992218,392.480652 387.904541,395.848663 385.007629,390.448120 
	C382.723297,390.247131 383.567688,393.898804 381.224518,392.985016 
	C379.152222,392.176910 379.758789,390.251312 379.678802,388.683380 
	C379.577362,386.695679 379.617310,384.700775 379.604279,382.273254 
M391.937805,390.086761 
	C392.941559,389.658478 393.945312,389.230164 395.108063,388.734039 
	C393.928589,387.586029 392.769897,386.651459 391.858856,385.517914 
	C390.924347,384.355164 390.045959,384.286011 388.934387,385.115662 
	C387.718628,386.023163 387.856049,387.133850 388.721313,388.077026 
	C389.473755,388.897156 390.486633,389.478394 391.937805,390.086761 
z"/>
<path fill="#000000" opacity="1.000000" stroke="none" 
	d="
M275.763611,392.993835 
	C273.351196,393.390198 271.381989,393.515686 270.376434,391.652405 
	C270.214691,389.373596 272.206177,389.698029 273.114075,388.556549 
	C272.043274,387.757080 271.019775,386.992859 270.114258,386.316772 
	C268.777618,386.802399 269.055359,387.744751 268.977936,388.525360 
	C268.804504,390.274231 269.345978,392.722351 266.835724,392.888855 
	C263.903320,393.083344 264.979675,390.396027 264.671967,388.802246 
	C264.460693,387.707947 264.902191,386.413361 263.354919,385.548248 
	C259.604828,386.635651 262.844055,391.234619 259.370941,393.113983 
	C256.477325,389.935333 256.657654,385.661530 257.862579,382.467285 
	C259.007874,379.431030 263.186127,379.275604 266.088806,380.501465 
	C268.398071,381.476654 269.897461,381.968048 272.304321,380.556885 
	C275.665344,378.586304 277.744568,380.205444 277.700958,384.314514 
	C277.670013,387.229675 280.014648,390.620514 275.763611,392.993835 
z"/>
<path fill="#000000" opacity="1.000000" stroke="none" 
	d="
M241.665924,384.838013 
	C243.357483,385.414368 242.974228,383.720184 243.559830,383.030365 
	C246.532043,379.529327 250.433624,378.690369 253.551895,381.362762 
	C256.356689,383.766571 257.258301,386.819458 255.226624,390.222961 
	C253.196671,393.623566 249.078308,394.420410 245.217941,392.209564 
	C244.369888,391.723877 243.615402,391.074829 242.785217,390.477539 
	C241.197800,391.183228 240.907211,393.988220 238.502808,393.085205 
	C235.892319,392.104767 236.969604,389.773376 236.749039,387.954681 
	C236.610641,386.813477 236.706848,385.641144 236.731415,384.483490 
	C236.769882,382.670441 236.523773,380.451447 239.096420,380.348816 
	C242.122040,380.228088 241.754120,382.601105 241.665924,384.838013 
M247.774002,385.005280 
	C246.056610,386.940979 246.743500,388.518066 248.850021,389.214233 
	C250.308502,389.696198 251.408157,388.432892 251.512451,386.968018 
	C251.674332,384.694092 250.349823,384.074310 247.774002,385.005280 
z"/>
<path fill="#000000" opacity="1.000000" stroke="none" 
	d="
M419.255615,388.796539 
	C421.298706,389.139587 423.881134,388.190735 423.881653,390.956970 
	C423.882111,393.517761 421.498810,393.218292 419.714661,393.320740 
	C411.681885,393.782013 411.673340,393.775238 411.662109,385.705109 
	C411.656342,381.548737 411.631592,377.391235 411.713409,373.236176 
	C411.804474,368.610382 415.418549,369.921448 417.969147,369.773254 
	C420.534668,369.624237 423.506714,369.366211 423.192017,373.694763 
	C422.395966,373.921936 421.790863,374.123138 421.172241,374.265839 
	C419.231842,374.713409 416.206024,373.290863 415.692657,376.250610 
	C415.087250,379.740967 418.450562,378.600464 420.248138,379.211945 
	C421.250275,379.552826 422.117584,380.012726 422.052094,381.241425 
	C421.936157,383.416382 420.240112,383.287689 418.771301,383.362213 
	C416.914917,383.456421 415.465820,383.957245 415.439240,386.167480 
	C415.410767,388.533325 417.076019,388.729370 419.255615,388.796539 
z"/>
<path fill="#000000" opacity="1.000000" stroke="none" 
	d="
M440.894897,380.700043 
	C449.123322,379.141754 450.573242,380.553650 448.914520,388.257019 
	C448.642487,389.520477 448.974213,390.522186 449.263123,391.622772 
	C449.953278,394.251862 448.846832,396.303223 446.761658,397.592621 
	C444.695007,398.870605 442.270721,398.630829 440.041992,397.760468 
	C438.837616,397.290161 438.271545,396.218750 438.815979,394.916199 
	C439.258118,393.858337 440.097015,393.393372 441.204407,394.014801 
	C442.914429,394.974487 443.946472,394.477875 444.589386,392.712006 
	C436.830353,388.894562 435.738770,385.602478 440.894897,380.700043 
z"/>
<path fill="#000000" opacity="1.000000" stroke="none" 
	d="
M136.346680,393.126007 
	C133.072083,389.700439 134.962051,385.859009 134.965149,382.235931 
	C134.966354,380.820068 136.557709,380.755981 137.694809,380.665405 
	C141.103241,380.393890 144.518112,380.002869 147.927933,380.026337 
	C149.863159,380.039673 151.385071,381.328644 151.662613,383.407074 
	C152.074036,386.487976 153.102722,389.864014 150.944168,392.490814 
	C149.668961,394.042603 148.320297,392.722748 147.851257,390.976562 
	C147.355591,389.131317 148.433777,387.002045 146.708481,385.095612 
	C144.729767,386.353638 145.629807,388.321259 145.382202,389.906219 
	C145.182526,391.184357 145.405548,392.843231 143.584915,392.932983 
	C141.696976,393.026031 141.820923,391.376373 141.659668,390.081879 
	C141.461151,388.488251 142.119858,386.769470 140.786240,384.979279 
	C139.081802,386.315155 139.624542,388.223297 139.388031,389.787384 
	C139.131012,391.487244 139.114426,393.202820 136.346680,393.126007 
z"/>
<path fill="#000000" opacity="1.000000" stroke="none" 
	d="
M170.292328,390.844604 
	C170.023331,392.328033 169.528168,393.122620 168.269272,392.982910 
	C167.029297,392.845337 166.751205,391.910950 166.580612,390.872131 
	C166.276184,389.018585 167.455017,386.967133 165.910614,385.196259 
	C163.913132,385.969269 164.578278,387.672913 164.363205,389.025970 
	C164.121567,390.546051 164.887497,392.851624 162.481537,392.955566 
	C159.824310,393.070343 160.837219,390.689789 160.603561,389.221649 
	C160.389038,387.873779 161.115753,386.176849 159.155945,385.365295 
	C157.509537,387.037842 158.531631,389.192108 158.053741,391.036255 
	C157.721298,392.319153 157.092575,393.148865 155.665466,393.027252 
	C154.474030,392.925720 153.883774,392.099579 153.838486,391.032837 
	C153.725861,388.380768 153.695953,385.723328 153.708786,383.068420 
	C153.718277,381.103058 155.089188,380.628937 156.729370,380.537964 
	C160.150253,380.348175 163.574371,379.966766 166.990768,380.026978 
	C169.632034,380.073425 170.663223,382.103821 170.715973,384.480835 
	C170.759933,386.462250 170.475967,388.450958 170.292328,390.844604 
z"/>
<path fill="#000000" opacity="1.000000" stroke="none" 
	d="
M523.161133,383.504456 
	C526.207520,378.810394 530.091248,380.056671 534.145752,381.161072 
	C535.179077,385.398743 533.287415,389.596924 534.073120,393.844635 
	C534.408630,395.658722 532.877563,397.375458 531.025208,397.956268 
	C528.967407,398.601471 526.758362,398.733490 524.801208,397.418060 
	C523.725586,396.695007 523.191528,395.595215 523.847961,394.419250 
	C524.379028,393.467926 525.358582,393.262299 526.423767,393.868713 
	C527.651001,394.567352 529.131958,395.149323 529.498657,393.146515 
	C529.785339,391.581360 528.309082,391.608673 527.126221,391.376251 
	C522.837769,390.533722 522.842773,387.215820 523.161133,383.504456 
z"/>
<path fill="#000000" opacity="1.000000" stroke="none" 
	d="
M113.531609,389.084595 
	C115.161804,389.272003 116.462257,389.351715 117.810715,389.434387 
	C118.746796,391.625549 118.276680,393.026917 115.784149,393.298462 
	C111.274742,393.789703 107.632019,392.160370 104.965393,388.532135 
	C102.384430,385.020447 102.298096,378.531525 104.807312,374.886200 
	C107.360832,371.176514 110.999794,369.506042 115.493088,369.790710 
	C116.934258,369.882050 118.091805,370.441895 118.109367,372.158508 
	C118.128273,374.005920 116.838737,374.312622 115.421425,374.277710 
	C110.876869,374.165771 108.055527,376.411438 107.477943,380.790863 
	C106.924202,384.989563 109.276672,387.654449 113.531609,389.084595 
z"/>
<path fill="#000000" opacity="1.000000" stroke="none" 
	d="
M120.000359,388.583069 
	C120.155327,381.735413 124.364235,378.183472 129.186630,380.392883 
	C132.126831,381.739960 134.070923,384.033539 133.854263,387.348907 
	C133.668884,390.185394 131.964691,392.440521 129.125717,393.101654 
	C125.218704,394.011536 121.876541,393.071930 120.000359,388.583069 
M125.409813,388.673645 
	C127.573288,389.679779 128.601181,388.657532 128.669113,386.602814 
	C128.712051,385.303864 127.722565,384.323364 126.411560,384.542267 
	C124.124229,384.924133 124.031830,386.441528 125.409813,388.673645 
z"/>
<path fill="#000000" opacity="1.000000" stroke="none" 
	d="
M493.628235,381.452454 
	C494.739441,384.810425 494.739441,384.810425 489.306427,388.807922 
	C490.762909,389.734314 493.997894,387.174164 493.833801,390.613708 
	C493.701569,393.384888 490.952515,393.379578 488.782379,393.354767 
	C485.785309,393.320557 483.764618,391.742279 482.824585,388.947144 
	C481.884430,386.151642 482.633301,383.601562 484.795624,381.707764 
	C487.428986,379.401489 490.361176,378.890503 493.628235,381.452454 
z"/>
<path fill="#000000" opacity="1.000000" stroke="none" 
	d="
M359.077820,381.316467 
	C362.604065,378.908752 365.693085,379.225159 368.275177,382.001190 
	C370.464844,384.355316 371.116119,387.172241 369.324005,390.168884 
	C367.550446,393.134613 364.832794,393.914856 361.653625,393.283081 
	C356.525940,392.264130 355.180664,386.675354 359.077820,381.316467 
M361.752472,388.402954 
	C363.489227,390.045654 364.783661,389.394196 365.450714,387.451111 
	C365.926849,386.064178 365.409149,384.639038 363.740753,384.540924 
	C361.488831,384.408478 361.002930,385.883453 361.752472,388.402954 
z"/>
<path fill="#000000" opacity="1.000000" stroke="none" 
	d="
M185.393311,383.177612 
	C188.044312,379.396820 191.486893,379.182617 194.927063,380.872375 
	C197.207245,381.992340 197.931793,389.800232 196.371780,392.033508 
	C195.834000,392.803406 195.167084,393.146271 194.271667,392.960388 
	C193.048004,392.706329 192.949432,391.690033 192.741821,390.693481 
	C192.358826,388.854919 193.452240,386.677979 191.430176,385.011017 
	C189.288452,386.149689 190.236862,388.195038 189.931061,389.801086 
	C189.655670,391.247437 189.738129,393.091644 187.620834,392.981171 
	C185.486877,392.869843 185.783920,390.982483 185.670135,389.557770 
	C185.511490,387.571075 185.457474,385.576050 185.393311,383.177612 
z"/>
<path fill="#000000" opacity="1.000000" stroke="none" 
	d="
M503.385071,380.769867 
	C507.137360,379.962494 508.962708,380.815948 508.444061,384.700714 
	C508.181427,386.668152 508.330200,388.687347 508.214264,390.678589 
	C508.142181,391.917389 507.716431,393.022614 506.201965,393.013916 
	C504.681671,393.005157 504.346313,391.825134 504.159363,390.641357 
	C503.834717,388.586060 504.448578,386.375031 503.297119,384.281769 
	C499.961243,384.715576 500.475006,387.146698 500.277557,389.186768 
	C500.125183,390.760803 500.512360,393.015625 498.088593,392.877747 
	C495.778748,392.746368 496.344391,390.483551 496.122498,388.936890 
	C496.052185,388.446838 496.101593,387.940216 496.087097,387.441437 
	C495.887878,380.595917 495.934937,380.549835 503.385071,380.769867 
z"/>
<path fill="#000000" opacity="1.000000" stroke="none" 
	d="
M510.103577,384.511658 
	C510.426392,378.703522 514.969971,380.358398 517.722168,380.054474 
	C520.266907,379.773468 521.651855,382.153839 521.459045,384.915161 
	C521.447449,385.080994 521.463806,385.248657 521.453918,385.414703 
	C521.297302,388.036316 522.968384,392.256378 519.627014,392.628082 
	C516.345337,392.993103 518.289978,388.736084 517.569214,386.630890 
	C517.290405,385.816650 517.080078,385.042145 515.866699,384.915833 
	C513.475952,385.958282 514.651978,388.268982 514.334106,390.053131 
	C514.106873,391.328186 514.382080,392.980194 512.496948,393.049591 
	C510.439240,393.125336 510.201599,391.460083 510.118286,389.926727 
	C510.028076,388.266144 510.089233,386.597290 510.103577,384.511658 
z"/>
<path fill="#000000" opacity="1.000000" stroke="none" 
	d="
M172.664551,386.933533 
	C172.658615,385.642731 172.604156,384.807220 172.670609,383.981445 
	C172.774765,382.687195 172.651733,381.030426 174.565994,381.107697 
	C176.460556,381.184113 176.155518,382.881897 176.312286,384.141998 
	C176.502884,385.674042 175.943405,387.511292 177.929703,388.389893 
	C180.562027,387.166504 179.401108,384.862793 179.668045,383.079315 
	C179.898010,381.542725 180.402603,380.525452 182.097000,380.591370 
	C183.627869,380.650879 183.948608,381.783875 184.019241,383.010773 
	C184.095612,384.337372 184.118561,385.669495 184.102371,386.998444 
	C184.063797,390.166626 184.552429,393.303009 179.514801,393.394073 
	C174.934418,393.476898 172.429962,392.288727 172.664551,386.933533 
z"/>
<path fill="#000000" opacity="1.000000" stroke="none" 
	d="
M425.112427,388.191711 
	C425.306305,385.643341 425.505493,383.512177 425.721680,381.199127 
	C427.514252,380.807922 429.099792,380.457062 430.687500,380.116333 
	C434.023773,379.400299 435.735840,381.031921 436.259796,384.134460 
	C436.479004,385.432678 436.586975,386.819031 436.374298,388.103912 
	C436.084198,389.856689 437.246674,392.878571 434.308044,392.829254 
	C431.730774,392.786041 432.922943,389.973083 432.668823,388.352417 
	C432.432281,386.843658 432.398651,385.362915 430.489319,385.126740 
	C428.969727,386.134216 429.579285,387.598938 429.352753,388.838776 
	C429.058563,390.449097 430.059204,393.106354 427.200806,392.957428 
	C424.627289,392.823334 425.365295,390.300079 425.112427,388.191711 
z"/>
<path fill="#000000" opacity="1.000000" stroke="none" 
	d="
M198.408783,384.024109 
	C198.445541,381.689240 199.229218,380.395294 201.399780,380.655060 
	C203.533768,380.910492 203.266861,382.672638 203.282440,384.109985 
	C203.305771,386.262909 203.251709,388.421417 203.111023,390.569733 
	C203.015564,392.027527 202.333191,393.125793 200.652664,393.107849 
	C198.819016,393.088257 198.593002,391.775269 198.552673,390.365234 
	C198.495834,388.377960 198.460464,386.390076 198.408783,384.024109 
z"/>
<path fill="#000000" opacity="1.000000" stroke="none" 
	d="
M372.369904,392.393616 
	C371.889160,389.931030 371.620483,387.800812 371.503235,385.662292 
	C371.211212,380.338074 372.490662,379.572021 378.338806,381.863129 
	C376.784302,385.046906 375.001556,388.170074 375.005890,391.896027 
	C375.007263,393.072174 373.692383,393.124634 372.369904,392.393616 
z"/>
<path fill="#000000" opacity="1.000000" stroke="none" 
	d="
M455.633362,387.149872 
	C455.602264,388.518860 455.701202,389.519745 455.589111,390.496399 
	C455.457397,391.643524 455.239746,392.907745 453.717407,392.989563 
	C451.780365,393.093658 451.784149,391.595642 451.675415,390.276337 
	C451.512665,388.302094 451.332825,386.326294 451.270142,384.347656 
	C451.217499,382.685760 451.132446,380.715576 453.486542,380.689087 
	C455.819183,380.662842 455.748993,382.676788 455.858826,384.306274 
	C455.913696,385.119934 455.740234,385.948944 455.633362,387.149872 
z"/>
</svg>